<svg version="1.2" xmlns="http://www.w3.org/2000/svg" viewBox="0 0 304 64" width="304" height="64">
	<title>Infinity Logo RGB-svg</title>
	<style>
		.s0 { fill: #ffffff } 
		.s1 { fill: #ff2e00 } 
		.s2 { fill: #00e886 } 
	</style>
	<g id="Infinity-Logo-RGB">
		<path id="Infinity" fill-rule="evenodd" class="s0" d="m280.7 14.2l5.2 20.3 0.9 4.3h0.6l0.9-4.3 4.9-20.3h10.3l-12 35.4c-3.7 10.9-7.8 13.8-14.9 13.8-2 0-3.8-0.6-5.1-1.1l2-7.9c1.1 0.5 2 0.7 2.9 0.7 2 0 3.6-0.9 4.7-4l0.7-1.8-12-35.1zm-24.6-11.8v11.8h10.2v7.4h-10.2v15.4c0 3.1 1.1 4.6 3.8 4.6 1.5 0 3.1-0.6 4.6-1.6l2.9 7.3c-2.4 1.9-5.5 2.9-9.1 2.9-6.9 0-11.5-4.1-11.5-12.5v-16.1h-6.3v-7.1l2.8-0.3c2.6-0.2 3.9-1.9 4.1-5.2l0.5-6.6zm-156.5 11.8v35.1h-9.3v-35.1zm27.6-0.9c5.4 0 11.2 3.7 11.2 13v23h-9.2v-20.3c0-5.1-2.3-6.8-5.3-6.8-2.3 0-4.8 1-6.9 2.6v24.5h-9.3v-35.1h8.4l0.3 4.9 0.4 0.3c2.3-3.1 5.3-6.1 10.4-6.1zm33.1-13.3c3.8 0 6.7 1.3 8.3 2.4l-3.4 7.2c-1.1-1.2-2.5-1.9-4.3-1.9-2.4 0-3.9 1.4-3.9 3.9v2.6h7.9v7.4h-7.9v27.7h-9.2v-27.7h-4.7v-7.4h4.7v-1.4c0-6.9 4.1-12.8 12.5-12.8zm19.2 14.2v35.1h-9.3v-35.1zm27.6-0.9c5.4 0 11.2 3.7 11.2 13v23h-9.2v-20.3c0-5.1-2.4-6.8-5.4-6.8-2.2 0-4.8 1-6.8 2.6v24.5h-9.3v-35.1h8.4l0.2 4.9 0.5 0.3c2.2-3.1 5.3-6.1 10.4-6.1zm28.3 0.9v35.1h-9.3v-35.1z"/>
		<g id="Logo">
			<path id="Fill-2" fill-rule="evenodd" class="s1" d="m18.4 50.2c-10.1 0-18.4-8.3-18.4-18.5h9.3c0 5.1 4.1 9.2 9.1 9.2 5.2 0 12.5-6.7 19-12.6 8.1-7.4 16.5-15 25.2-15 10.2 0 18.5 8.3 18.5 18.4h-9.3c0-5-4.1-9.1-9.2-9.1-5.1 0-12.5 6.7-18.9 12.6-8.2 7.3-16.6 15-25.3 15z"/>
			<path id="Logo-Groen" fill-rule="evenodd" class="s2" d="m62.6 50.2c-8.7 0-17.1-7.7-25.2-15-6.5-5.9-13.8-12.6-19-12.6-5 0-9.1 4.1-9.1 9.1h-9.3c0-10.1 8.3-18.4 18.4-18.4 8.7 0 17.1 7.6 25.3 15 6.4 5.9 13.8 12.6 18.9 12.6 5.1 0 9.2-4.1 9.2-9.2h9.3c0 10.2-8.3 18.5-18.5 18.5z"/>
		</g>
	</g>
</svg>