<?xml version="1.0" encoding="UTF-8"?>
<svg width="304px" height="101px" viewBox="0 0 304 101" version="1.1" xmlns="http://www.w3.org/2000/svg" xmlns:xlink="http://www.w3.org/1999/xlink">
    <title>Infinity Logo + Payoff RGB</title>
    <g id="Infinity-Logo-+-Payoff-RGB" stroke="none" stroke-width="1" fill="none" fill-rule="evenodd">
        <path d="M94.77,96.57 C97.38,96.57 99.54,94.478 99.54,91.328 C99.54,88.133 97.448,86.085 94.725,86.085 C92.093,86.085 89.933,88.178 89.933,91.328 C89.933,94.523 92.048,96.57 94.77,96.57 Z M94.748,95.625 C92.835,95.625 91.418,94.118 91.418,91.328 C91.418,88.515 92.88,87.053 94.748,87.053 C96.638,87.053 98.055,88.538 98.055,91.328 C98.055,94.14 96.593,95.625 94.748,95.625 Z M107.302,86.085 C105.39,86.085 104.355,87.143 103.792,88.425 L103.747,88.38 L103.792,86.153 C103.117,86.22 102.33,86.243 100.642,86.288 L100.642,87.075 C102.375,87.143 102.42,87.143 102.42,87.435 L102.42,99.18 C102.42,99.563 102.397,99.563 100.755,99.63 L100.755,100.328 L105.84,100.328 L105.84,99.63 C103.882,99.563 103.837,99.563 103.837,99.18 L103.837,95.49 C104.602,96.143 105.547,96.57 106.92,96.57 C109.35,96.57 111.6,94.41 111.6,91.215 C111.6,88.088 109.665,86.085 107.302,86.085 Z M106.74,95.625 C105.412,95.625 104.535,94.973 103.837,94.095 L103.837,88.785 C104.445,87.795 105.525,87.165 106.785,87.165 C108.832,87.165 110.092,88.65 110.092,91.305 C110.092,93.983 108.63,95.625 106.74,95.625 Z M117,96.525 C118.372,96.525 119.25,95.828 119.722,94.703 L119.565,94.568 C119.092,95.13 118.485,95.423 117.585,95.423 C116.392,95.423 115.897,94.77 115.897,93.533 L115.897,87.21 L119.542,87.21 L119.542,86.288 L115.897,86.288 L115.897,83.43 L114.75,83.43 C114.525,86.085 114.457,86.22 113.827,86.265 L112.657,86.288 L112.657,87.21 L114.48,87.21 L114.48,93.69 C114.48,95.445 115.245,96.525 117,96.525 Z M122.782,83.633 C123.39,83.633 123.817,83.205 123.817,82.62 C123.817,82.013 123.39,81.608 122.782,81.608 C122.197,81.608 121.77,82.013 121.77,82.62 C121.77,83.205 122.197,83.633 122.782,83.633 Z M120.802,96.368 L125.527,96.368 L125.527,95.67 C123.907,95.603 123.862,95.603 123.862,95.22 L123.862,86.153 C123.21,86.22 122.4,86.243 120.667,86.288 L120.667,87.075 C122.4,87.143 122.445,87.143 122.445,87.435 L122.445,95.22 C122.445,95.603 122.422,95.603 120.802,95.67 L120.802,96.368 Z M142.109,95.22 L142.109,89.325 C142.109,87.233 140.849,86.085 139.117,86.085 C137.497,86.085 136.349,87.098 135.719,88.538 C135.404,86.94 134.257,86.085 132.772,86.085 C131.197,86.085 130.072,87.053 129.397,88.47 L129.352,88.38 L129.397,86.153 C128.722,86.22 127.934,86.243 126.247,86.288 L126.247,87.075 C127.979,87.143 128.024,87.143 128.024,87.435 L128.024,95.22 C128.024,95.603 128.002,95.603 126.382,95.67 L126.382,96.368 L131.107,96.368 L131.107,95.67 C129.487,95.603 129.442,95.603 129.442,95.22 L129.442,88.853 C130.004,87.885 131.129,87.255 132.164,87.255 C133.649,87.255 134.369,88.11 134.369,89.64 L134.369,96.368 L137.429,96.368 L137.429,95.67 C135.809,95.603 135.787,95.603 135.787,95.22 L135.787,89.393 C135.787,89.235 135.787,89.078 135.764,88.92 C136.349,87.953 137.384,87.255 138.487,87.255 C139.994,87.255 140.692,88.11 140.692,89.64 L140.692,96.368 L143.774,96.368 L143.774,95.67 C142.154,95.603 142.109,95.603 142.109,95.22 Z M154.462,94.95 C154.147,95.265 153.764,95.445 153.314,95.445 C152.752,95.445 152.504,95.13 152.504,94.41 L152.504,89.055 C152.504,87.278 151.514,86.13 149.039,86.13 C146.767,86.13 145.282,87.233 145.282,89.055 L146.654,89.258 C146.654,87.885 147.442,86.963 148.972,86.963 C150.524,86.963 151.087,87.728 151.087,88.988 L151.087,90.27 L148.139,91.013 C145.844,91.598 144.899,92.408 144.899,93.938 C144.899,95.49 145.912,96.57 147.644,96.57 C149.219,96.57 150.412,95.67 151.132,94.23 L151.199,94.298 L151.199,94.973 C151.199,96.03 151.739,96.57 152.662,96.57 C153.494,96.57 154.282,96.075 154.597,95.108 L154.462,94.95 Z M148.207,95.535 C147.037,95.535 146.384,94.883 146.384,93.825 C146.384,92.768 147.014,92.16 148.747,91.71 L151.087,91.058 L151.087,93.87 C150.389,94.905 149.377,95.535 148.207,95.535 Z M155.002,96.368 L159.727,96.368 L159.727,95.67 C158.107,95.603 158.062,95.603 158.062,95.22 L158.062,81.72 C157.409,81.765 156.599,81.81 154.867,81.855 L154.867,82.643 C156.599,82.71 156.644,82.71 156.644,83.003 L156.644,95.22 C156.644,95.603 156.622,95.603 155.002,95.67 L155.002,96.368 Z M169.604,91.305 C169.672,88.223 168.119,86.085 165.464,86.085 C162.652,86.085 160.852,88.538 160.852,91.508 C160.852,94.613 162.764,96.57 165.667,96.57 C167.489,96.57 168.794,95.738 169.424,94.185 L169.244,94.05 C168.479,95.04 167.399,95.49 166.049,95.49 C163.732,95.49 162.314,94.073 162.314,91.463 L162.314,91.305 L169.604,91.305 Z M165.442,86.985 C166.927,86.985 168.007,88.02 168.097,90.45 L162.382,90.45 C162.652,88.223 163.867,86.985 165.442,86.985 Z M182.384,86.085 C180.471,86.085 179.436,87.143 178.874,88.425 L178.829,88.38 L178.874,86.153 C178.199,86.22 177.411,86.243 175.724,86.288 L175.724,87.075 C177.456,87.143 177.501,87.143 177.501,87.435 L177.501,99.18 C177.501,99.563 177.479,99.563 175.836,99.63 L175.836,100.328 L180.921,100.328 L180.921,99.63 C178.964,99.563 178.919,99.563 178.919,99.18 L178.919,95.49 C179.684,96.143 180.629,96.57 182.001,96.57 C184.431,96.57 186.681,94.41 186.681,91.215 C186.681,88.088 184.746,86.085 182.384,86.085 Z M181.821,95.625 C180.494,95.625 179.616,94.973 178.919,94.095 L178.919,88.785 C179.526,87.795 180.606,87.165 181.866,87.165 C183.914,87.165 185.174,88.65 185.174,91.305 C185.174,93.983 183.711,95.625 181.821,95.625 Z M194.826,86.108 C193.139,86.108 192.014,87.48 191.159,89.28 L191.114,89.19 L191.159,86.153 C190.484,86.22 189.696,86.243 188.009,86.288 L188.009,87.075 C189.741,87.143 189.786,87.143 189.786,87.435 L189.786,95.22 C189.786,95.603 189.764,95.603 188.144,95.67 L188.144,96.368 L193.364,96.368 L193.364,95.67 C191.249,95.603 191.204,95.603 191.204,95.22 L191.204,89.865 C191.991,88.493 193.229,87.593 194.691,87.593 C194.871,87.593 195.051,87.615 195.231,87.638 L195.231,86.153 C195.074,86.108 194.939,86.108 194.826,86.108 Z M205.064,91.305 C205.131,88.223 203.579,86.085 200.924,86.085 C198.111,86.085 196.311,88.538 196.311,91.508 C196.311,94.613 198.224,96.57 201.126,96.57 C202.949,96.57 204.254,95.738 204.884,94.185 L204.704,94.05 C203.939,95.04 202.859,95.49 201.509,95.49 C199.191,95.49 197.774,94.073 197.774,91.463 L197.774,91.305 L205.064,91.305 Z M200.901,86.985 C202.386,86.985 203.466,88.02 203.556,90.45 L197.841,90.45 C198.111,88.223 199.326,86.985 200.901,86.985 Z M211.701,90.72 L210.081,90.293 C208.776,89.955 208.371,89.415 208.371,88.628 C208.371,87.705 209.091,86.963 210.441,86.963 C211.858,86.963 212.983,87.773 213.343,89.46 L213.996,89.46 L213.973,86.153 L213.186,86.153 L212.938,87.705 L212.961,87.773 C212.533,86.715 211.611,86.085 210.238,86.085 C208.281,86.085 207.156,87.368 207.156,88.875 C207.156,90.248 207.786,91.17 209.653,91.643 L211.273,92.07 C212.758,92.453 213.186,93.015 213.186,93.915 C213.186,95.018 212.286,95.67 211.116,95.67 C209.608,95.67 208.258,94.86 207.718,92.97 L207.111,92.97 L207.156,96.503 L207.876,96.503 L208.168,94.883 C208.821,96.053 209.991,96.57 211.296,96.57 C213.006,96.57 214.401,95.535 214.401,93.578 C214.401,92.093 213.636,91.215 211.701,90.72 Z M219.891,96.525 C221.263,96.525 222.141,95.828 222.613,94.703 L222.456,94.568 C221.983,95.13 221.376,95.423 220.476,95.423 C219.283,95.423 218.788,94.77 218.788,93.533 L218.788,87.21 L222.433,87.21 L222.433,86.288 L218.788,86.288 L218.788,83.43 L217.641,83.43 C217.416,86.085 217.348,86.22 216.718,86.265 L215.548,86.288 L215.548,87.21 L217.371,87.21 L217.371,93.69 C217.371,95.445 218.136,96.525 219.891,96.525 Z M233.503,94.95 C233.188,95.265 232.806,95.445 232.356,95.445 C231.793,95.445 231.546,95.13 231.546,94.41 L231.546,89.055 C231.546,87.278 230.556,86.13 228.081,86.13 C225.808,86.13 224.323,87.233 224.323,89.055 L225.696,89.258 C225.696,87.885 226.483,86.963 228.013,86.963 C229.566,86.963 230.128,87.728 230.128,88.988 L230.128,90.27 L227.181,91.013 C224.886,91.598 223.941,92.408 223.941,93.938 C223.941,95.49 224.953,96.57 226.686,96.57 C228.261,96.57 229.453,95.67 230.173,94.23 L230.241,94.298 L230.241,94.973 C230.241,96.03 230.781,96.57 231.703,96.57 C232.536,96.57 233.323,96.075 233.638,95.108 L233.503,94.95 Z M227.248,95.535 C226.078,95.535 225.426,94.883 225.426,93.825 C225.426,92.768 226.056,92.16 227.788,91.71 L230.128,91.058 L230.128,93.87 C229.431,94.905 228.418,95.535 227.248,95.535 Z M238.003,96.525 C239.376,96.525 240.253,95.828 240.726,94.703 L240.568,94.568 C240.096,95.13 239.488,95.423 238.588,95.423 C237.396,95.423 236.901,94.77 236.901,93.533 L236.901,87.21 L240.546,87.21 L240.546,86.288 L236.901,86.288 L236.901,83.43 L235.753,83.43 C235.528,86.085 235.461,86.22 234.831,86.265 L233.661,86.288 L233.661,87.21 L235.483,87.21 L235.483,93.69 C235.483,95.445 236.248,96.525 238.003,96.525 Z M243.786,83.633 C244.393,83.633 244.821,83.205 244.821,82.62 C244.821,82.013 244.393,81.608 243.786,81.608 C243.201,81.608 242.773,82.013 242.773,82.62 C242.773,83.205 243.201,83.633 243.786,83.633 Z M241.806,96.368 L246.531,96.368 L246.531,95.67 C244.911,95.603 244.866,95.603 244.866,95.22 L244.866,86.153 C244.213,86.22 243.403,86.243 241.671,86.288 L241.671,87.075 C243.403,87.143 243.448,87.143 243.448,87.435 L243.448,95.22 C243.448,95.603 243.426,95.603 241.806,95.67 L241.806,96.368 Z M256.498,91.305 C256.565,88.223 255.013,86.085 252.358,86.085 C249.545,86.085 247.745,88.538 247.745,91.508 C247.745,94.613 249.658,96.57 252.56,96.57 C254.383,96.57 255.688,95.738 256.318,94.185 L256.138,94.05 C255.373,95.04 254.293,95.49 252.943,95.49 C250.625,95.49 249.208,94.073 249.208,91.463 L249.208,91.305 L256.498,91.305 Z M252.335,86.985 C253.82,86.985 254.9,88.02 254.99,90.45 L249.275,90.45 C249.545,88.223 250.76,86.985 252.335,86.985 Z M263.135,90.72 L261.515,90.293 C260.21,89.955 259.805,89.415 259.805,88.628 C259.805,87.705 260.525,86.963 261.875,86.963 C263.293,86.963 264.418,87.773 264.778,89.46 L265.43,89.46 L265.408,86.153 L264.62,86.153 L264.373,87.705 L264.395,87.773 C263.968,86.715 263.045,86.085 261.673,86.085 C259.715,86.085 258.59,87.368 258.59,88.875 C258.59,90.248 259.22,91.17 261.088,91.643 L262.708,92.07 C264.193,92.453 264.62,93.015 264.62,93.915 C264.62,95.018 263.72,95.67 262.55,95.67 C261.043,95.67 259.693,94.86 259.153,92.97 L258.545,92.97 L258.59,96.503 L259.31,96.503 L259.603,94.883 C260.255,96.053 261.425,96.57 262.73,96.57 C264.44,96.57 265.835,95.535 265.835,93.578 C265.835,92.093 265.07,91.215 263.135,90.72 Z M100.575,69.975 C100.575,72.405 98.708,74.048 96.12,74.048 C94.095,74.048 92.34,73.26 91.598,71.618 L91.215,73.958 L90.428,73.958 L90.405,69.098 L91.125,69.098 C91.733,71.933 93.713,73.08 95.918,73.08 C97.853,73.08 99.248,72 99.248,70.29 C99.248,68.918 98.438,68.153 96.368,67.523 L93.713,66.735 C91.283,66.038 90.36,64.868 90.36,63.045 C90.36,60.998 92.138,59.22 94.77,59.22 C96.773,59.22 98.1,60.098 98.685,61.538 L99.045,59.288 L99.855,59.288 L99.878,63.99 L99.113,63.99 C98.663,61.56 97.155,60.165 94.905,60.165 C92.925,60.165 91.688,61.38 91.688,62.753 C91.688,63.945 92.273,64.688 94.23,65.295 L96.908,66.083 C99.405,66.825 100.575,67.95 100.575,69.975 Z M101.992,73.17 C103.612,73.103 103.635,73.103 103.635,72.72 L103.635,60.503 C103.635,60.21 103.59,60.21 101.857,60.143 L101.857,59.355 C103.59,59.31 104.4,59.265 105.052,59.22 L105.052,72.72 C105.052,73.103 105.097,73.103 106.717,73.17 L106.717,73.868 L101.992,73.868 L101.992,73.17 Z M108.517,60.12 C108.517,59.513 108.945,59.108 109.53,59.108 C110.137,59.108 110.565,59.513 110.565,60.12 C110.565,60.705 110.137,61.133 109.53,61.133 C108.945,61.133 108.517,60.705 108.517,60.12 Z M107.55,73.17 C109.17,73.103 109.192,73.103 109.192,72.72 L109.192,64.935 C109.192,64.643 109.147,64.643 107.415,64.575 L107.415,63.788 C109.147,63.743 109.957,63.72 110.61,63.653 L110.61,72.72 C110.61,73.103 110.655,73.103 112.275,73.17 L112.275,73.868 L107.55,73.868 L107.55,73.17 Z M130.522,73.17 L130.522,73.868 L127.439,73.868 L127.439,67.14 C127.439,65.61 126.742,64.755 125.234,64.755 C124.132,64.755 123.097,65.453 122.512,66.42 C122.534,66.578 122.534,66.735 122.534,66.893 L122.534,72.72 C122.534,73.103 122.557,73.103 124.177,73.17 L124.177,73.868 L121.117,73.868 L121.117,67.14 C121.117,65.61 120.397,64.755 118.912,64.755 C117.877,64.755 116.752,65.385 116.189,66.353 L116.189,72.72 C116.189,73.103 116.234,73.103 117.854,73.17 L117.854,73.868 L113.129,73.868 L113.129,73.17 C114.749,73.103 114.772,73.103 114.772,72.72 L114.772,64.935 C114.772,64.643 114.727,64.643 112.994,64.575 L112.994,63.788 C114.682,63.743 115.469,63.72 116.144,63.653 L116.099,65.88 L116.144,65.97 C116.819,64.553 117.944,63.585 119.519,63.585 C121.004,63.585 122.152,64.44 122.467,66.038 C123.097,64.598 124.244,63.585 125.864,63.585 C127.597,63.585 128.857,64.733 128.857,66.825 L128.857,72.72 C128.857,73.103 128.902,73.103 130.522,73.17 Z M148.747,73.17 L148.747,73.868 L145.664,73.868 L145.664,67.14 C145.664,65.61 144.967,64.755 143.459,64.755 C142.357,64.755 141.322,65.453 140.737,66.42 C140.759,66.578 140.759,66.735 140.759,66.893 L140.759,72.72 C140.759,73.103 140.782,73.103 142.402,73.17 L142.402,73.868 L139.342,73.868 L139.342,67.14 C139.342,65.61 138.622,64.755 137.137,64.755 C136.102,64.755 134.977,65.385 134.414,66.353 L134.414,72.72 C134.414,73.103 134.459,73.103 136.079,73.17 L136.079,73.868 L131.354,73.868 L131.354,73.17 C132.974,73.103 132.997,73.103 132.997,72.72 L132.997,64.935 C132.997,64.643 132.952,64.643 131.219,64.575 L131.219,63.788 C132.907,63.743 133.694,63.72 134.369,63.653 L134.324,65.88 L134.369,65.97 C135.044,64.553 136.169,63.585 137.744,63.585 C139.229,63.585 140.377,64.44 140.692,66.038 C141.322,64.598 142.469,63.585 144.089,63.585 C145.822,63.585 147.082,64.733 147.082,66.825 L147.082,72.72 C147.082,73.103 147.127,73.103 148.747,73.17 Z M151.402,68.805 L151.402,68.963 C151.402,71.573 152.819,72.99 155.137,72.99 C156.487,72.99 157.567,72.54 158.332,71.55 L158.512,71.685 C157.882,73.238 156.577,74.07 154.754,74.07 C151.852,74.07 149.939,72.113 149.939,69.008 C149.939,66.038 151.739,63.585 154.552,63.585 C157.207,63.585 158.759,65.723 158.692,68.805 L151.402,68.805 Z M151.469,67.95 L157.184,67.95 C157.094,65.52 156.014,64.485 154.529,64.485 C152.954,64.485 151.739,65.723 151.469,67.95 Z M174.621,74.79 C174.621,76.703 172.641,78.03 169.514,78.03 C166.859,78.03 165.261,77.243 165.261,75.578 C165.261,74.565 166.026,73.665 167.511,73.463 C166.341,73.26 165.711,72.63 165.711,71.73 C165.711,70.853 166.296,70.178 167.309,69.705 C166.341,69.165 165.801,68.198 165.801,66.938 C165.801,64.958 167.399,63.585 169.694,63.585 C170.796,63.585 171.696,63.81 172.349,64.238 C172.619,63.563 172.844,62.663 172.934,61.763 L174.464,61.763 C174.171,62.888 173.541,63.833 172.641,64.463 C173.339,65.025 173.721,65.88 173.721,66.938 C173.721,68.94 172.146,70.29 169.806,70.29 C168.906,70.29 168.119,70.133 167.511,69.818 C167.016,70.223 166.769,70.65 166.769,71.123 C166.769,71.843 167.286,72.225 168.434,72.225 L171.336,72.225 C173.586,72.225 174.621,73.26 174.621,74.79 Z M167.264,66.938 C167.264,68.468 168.164,69.413 169.784,69.413 C171.314,69.413 172.259,68.468 172.259,66.938 C172.259,65.385 171.359,64.463 169.739,64.463 C168.209,64.463 167.264,65.408 167.264,66.938 Z M173.451,75.015 C173.451,74.093 172.821,73.53 171.426,73.53 L168.996,73.53 C167.196,73.53 166.431,74.25 166.431,75.218 C166.431,76.433 167.466,77.063 169.649,77.063 C172.034,77.063 173.451,76.253 173.451,75.015 Z M177.344,68.805 L177.344,68.963 C177.344,71.573 178.761,72.99 181.079,72.99 C182.429,72.99 183.509,72.54 184.274,71.55 L184.454,71.685 C183.824,73.238 182.519,74.07 180.696,74.07 C177.794,74.07 175.881,72.113 175.881,69.008 C175.881,66.038 177.681,63.585 180.494,63.585 C183.149,63.585 184.701,65.723 184.634,68.805 L177.344,68.805 Z M177.411,67.95 L183.126,67.95 C183.036,65.52 181.956,64.485 180.471,64.485 C178.896,64.485 177.681,65.723 177.411,67.95 Z M196.379,68.715 C196.379,71.91 194.152,74.07 191.722,74.07 C190.259,74.07 189.292,73.598 188.459,72.833 L188.077,73.958 L187.222,73.958 L187.222,60.503 C187.222,60.21 187.177,60.21 185.422,60.143 L185.422,59.355 C187.177,59.31 187.987,59.265 188.639,59.22 L188.639,65.88 C189.202,64.62 190.259,63.585 192.149,63.585 C194.534,63.585 196.379,65.588 196.379,68.715 Z M194.894,68.805 C194.894,66.15 193.612,64.665 191.587,64.665 C190.282,64.665 189.247,65.34 188.639,66.375 L188.639,71.595 C189.314,72.473 190.192,73.125 191.542,73.125 C193.409,73.125 194.894,71.483 194.894,68.805 Z M198.246,68.828 C198.246,65.678 200.406,63.585 203.039,63.585 C205.761,63.585 207.854,65.633 207.854,68.828 C207.854,71.978 205.694,74.07 203.084,74.07 C200.361,74.07 198.246,72.023 198.246,68.828 Z M206.369,68.828 C206.369,66.038 204.951,64.553 203.061,64.553 C201.194,64.553 199.731,66.015 199.731,68.828 C199.731,71.618 201.149,73.125 203.061,73.125 C204.906,73.125 206.369,71.64 206.369,68.828 Z M220.634,73.103 L220.634,73.868 C218.924,73.913 218.159,73.958 217.484,74.003 L217.506,71.865 L217.461,71.798 C216.764,73.125 215.594,74.07 213.951,74.07 C212.039,74.07 210.824,72.833 210.824,70.853 L210.824,64.935 C210.824,64.643 210.801,64.643 209.046,64.575 L209.046,63.788 C210.779,63.743 211.589,63.72 212.264,63.653 L212.264,70.515 C212.264,72.045 213.051,72.923 214.514,72.923 C215.661,72.923 216.741,72.315 217.416,71.37 L217.416,64.935 C217.416,64.643 217.371,64.643 215.639,64.575 L215.639,63.788 C217.371,63.743 218.181,63.72 218.834,63.653 L218.834,72.765 C218.834,73.058 218.879,73.058 220.634,73.103 Z M237.419,63.788 L237.419,64.575 C235.979,64.688 235.866,64.845 235.709,65.295 L232.941,73.89 L231.816,73.89 L229.521,67.883 L229.049,66.533 L228.554,67.883 L226.326,73.89 L225.201,73.89 L222.321,65.048 C222.209,64.733 222.164,64.688 220.746,64.575 L220.746,63.788 L225.314,63.788 L225.314,64.575 C223.851,64.643 223.806,64.688 223.896,65.003 L225.584,70.718 L226.011,72.135 L226.506,70.695 L228.869,64.238 L229.566,64.238 L232.041,70.875 L232.581,72.383 L233.009,70.875 L234.651,65.205 C234.764,64.8 234.651,64.643 233.031,64.575 L233.031,63.788 L237.419,63.788 Z M239.466,68.805 L239.466,68.963 C239.466,71.573 240.884,72.99 243.201,72.99 C244.551,72.99 245.631,72.54 246.396,71.55 L246.576,71.685 C245.946,73.238 244.641,74.07 242.819,74.07 C239.916,74.07 238.004,72.113 238.004,69.008 C238.004,66.038 239.804,63.585 242.616,63.585 C245.271,63.585 246.824,65.723 246.756,68.805 L239.466,68.805 Z M239.534,67.95 L245.249,67.95 C245.159,65.52 244.079,64.485 242.594,64.485 C241.019,64.485 239.804,65.723 239.534,67.95 Z M259.716,73.17 L259.716,73.868 L256.633,73.868 L256.633,67.163 C256.633,65.61 255.733,64.755 254.226,64.755 C253.168,64.755 252.021,65.408 251.346,66.375 L251.346,72.72 C251.346,73.103 251.391,73.103 253.011,73.17 L253.011,73.868 L248.286,73.868 L248.286,73.17 C249.906,73.103 249.928,73.103 249.928,72.72 L249.928,64.935 C249.928,64.643 249.883,64.643 248.151,64.575 L248.151,63.788 C249.838,63.743 250.626,63.72 251.301,63.653 L251.256,65.88 L251.301,65.97 C252.043,64.575 253.258,63.585 254.878,63.585 C256.611,63.585 258.051,64.733 258.051,66.78 L258.051,72.72 C258.051,73.103 258.073,73.103 259.716,73.17 Z M260.795,76.073 C261.898,75.533 262.573,74.61 262.37,73.71 L262.438,73.62 C262.033,74.138 261.088,73.845 261.088,73.035 C261.088,72.495 261.515,72.045 262.078,72.045 C262.775,72.045 263.248,72.72 263.248,73.665 C263.248,74.723 262.708,75.938 261.088,76.658 L260.795,76.073 L260.795,76.073 Z" id="Payoff" fill="#00E886"></path>
        <path d="M280.706,14.175 L285.881,34.5 L286.781,38.775 L287.381,38.775 L288.281,34.5 L293.231,14.175 L303.506,14.175 L291.506,49.575 C287.831,60.45 283.706,63.375 276.581,63.375 C274.556,63.375 272.756,62.775 271.481,62.325 L271.481,62.325 L273.506,54.375 C274.631,54.9 275.531,55.05 276.431,55.05 C278.381,55.05 279.956,54.225 281.081,51.075 L281.081,51.075 L281.756,49.275 L269.756,14.175 L280.706,14.175 Z M256.107,2.4 L256.107,14.175 L266.382,14.175 L266.382,21.6 L256.107,21.6 L256.107,36.975 C256.107,40.05 257.232,41.625 259.932,41.625 C261.432,41.625 263.082,40.95 264.582,39.975 L264.582,39.975 L267.432,47.325 C265.032,49.2 261.957,50.175 258.357,50.175 C251.457,50.175 246.882,46.125 246.882,37.725 L246.882,37.725 L246.882,21.6 L240.507,21.6 L240.507,14.475 L243.357,14.175 C245.982,13.95 247.257,12.3 247.482,9 L247.482,9 L247.932,2.4 L256.107,2.4 Z M99.66,14.175 L99.66,49.275 L90.36,49.275 L90.36,14.175 L99.66,14.175 Z M127.26,13.275 C132.66,13.275 138.435,16.95 138.435,26.325 L138.435,26.325 L138.435,49.275 L129.21,49.275 L129.21,29.025 C129.21,23.85 126.885,22.2 123.885,22.2 C121.635,22.2 119.085,23.175 117.06,24.75 L117.06,24.75 L117.06,49.275 L107.76,49.275 L107.76,14.175 L116.16,14.175 L116.385,19.125 L116.835,19.425 C119.085,16.275 122.16,13.275 127.26,13.275 Z M160.334,-1.42108547e-14 C164.159,-1.42108547e-14 167.009,1.275 168.584,2.4 L168.584,2.4 L165.209,9.6 C164.159,8.4 162.734,7.65 160.934,7.65 C158.534,7.65 157.034,9.075 157.034,11.625 L157.034,11.625 L157.034,14.175 L164.909,14.175 L164.909,21.6 L157.034,21.6 L157.034,49.275 L147.809,49.275 L147.809,21.6 L143.084,21.6 L143.084,14.175 L147.809,14.175 L147.809,12.75 C147.809,5.85 151.934,-1.42108547e-14 160.334,-1.42108547e-14 Z M179.534,14.175 L179.534,49.275 L170.234,49.275 L170.234,14.175 L179.534,14.175 Z M207.134,13.275 C212.534,13.275 218.309,16.95 218.309,26.325 L218.309,26.325 L218.309,49.275 L209.084,49.275 L209.084,29.025 C209.084,23.85 206.759,22.2 203.759,22.2 C201.509,22.2 198.959,23.175 196.934,24.75 L196.934,24.75 L196.934,49.275 L187.634,49.275 L187.634,14.175 L196.034,14.175 L196.259,19.125 L196.709,19.425 C198.959,16.275 202.034,13.275 207.134,13.275 Z M235.408,14.175 L235.408,49.275 L226.108,49.275 L226.108,14.175 L235.408,14.175 Z" id="Infinity" fill="#000000"></path>
        <g id="Logo" transform="translate(0.000000, 13.275000)">
            <path d="M18.45,36.9 C8.276,36.9 0,28.624 0,18.45 L9.3,18.45 C9.3,23.496 13.404,27.6 18.45,27.6 C23.552,27.6 30.91,20.911 37.402,15.01 C45.519,7.63 53.912,0 62.61,0 C72.783,0 81.06,8.277 81.06,18.45 L71.76,18.45 C71.76,13.405 67.655,9.3 62.61,9.3 C57.507,9.3 50.149,15.989 43.658,21.891 C35.541,29.27 27.147,36.9 18.45,36.9" id="Fill-2" fill="#FF2E00"></path>
            <path d="M62.61,36.9 C53.912,36.9 45.519,29.27 37.402,21.891 C30.91,15.989 23.552,9.3 18.45,9.3 C13.404,9.3 9.3,13.405 9.3,18.45 L0,18.45 C0,8.277 8.276,0 18.45,0 C27.147,0 35.541,7.631 43.658,15.01 C50.149,20.911 57.507,27.6 62.61,27.6 C67.655,27.6 71.76,23.496 71.76,18.45 L81.06,18.45 C81.06,28.624 72.783,36.9 62.61,36.9" id="Logo-Groen" fill="#00E886"></path>
        </g>
    </g>
</svg>