<svg version="1.2" xmlns="http://www.w3.org/2000/svg" viewBox="0 0 84 64" width="84" height="64">
	<title>Infinity Logo RGB Black</title>
	<style>
		.s0 { fill: #ff2e00 } 
		.s1 { fill: #00e886 } 
	</style>
	<g id="Infinity-Logo-RGB">
		<g id="Logo">
			<path id="Fill-2" fill-rule="evenodd" class="s0" d="m19.4 51.2c-10.1 0-18.4-8.3-18.4-18.5h9.3c0 5.1 4.1 9.2 9.1 9.2 5.2 0 12.5-6.7 19-12.6 8.1-7.4 16.5-15 25.2-15 10.2 0 18.5 8.3 18.5 18.4h-9.3c0-5-4.1-9.1-9.2-9.1-5.1 0-12.5 6.7-18.9 12.6-8.2 7.3-16.6 15-25.3 15z"/>
			<path id="Logo-Groen" fill-rule="evenodd" class="s1" d="m63.6 51.2c-8.7 0-17.1-7.7-25.2-15-6.5-5.9-13.8-12.6-19-12.6-5 0-9.1 4.1-9.1 9.1h-9.3c0-10.1 8.3-18.4 18.4-18.4 8.7 0 17.1 7.6 25.3 15 6.4 5.9 13.8 12.6 18.9 12.6 5.1 0 9.2-4.1 9.2-9.2h9.3c0 10.2-8.3 18.5-18.5 18.5z"/>
		</g>
	</g>
</svg>