<?xml version="1.0" encoding="UTF-8"?>
<svg width="304px" height="64px" viewBox="0 0 304 64" version="1.1" xmlns="http://www.w3.org/2000/svg" xmlns:xlink="http://www.w3.org/1999/xlink">
    <title>Infinity Logo RGB</title>
    <g id="Infinity-Logo-RGB" stroke="none" stroke-width="1" fill="none" fill-rule="evenodd">
        <path d="M280.706,14.175 L285.881,34.5 L286.781,38.775 L287.381,38.775 L288.281,34.5 L293.231,14.175 L303.506,14.175 L291.506,49.575 C287.831,60.45 283.706,63.375 276.581,63.375 C274.556,63.375 272.756,62.775 271.481,62.325 L271.481,62.325 L273.506,54.375 C274.631,54.9 275.531,55.05 276.431,55.05 C278.381,55.05 279.956,54.225 281.081,51.075 L281.081,51.075 L281.756,49.275 L269.756,14.175 L280.706,14.175 Z M256.107,2.4 L256.107,14.175 L266.382,14.175 L266.382,21.6 L256.107,21.6 L256.107,36.975 C256.107,40.05 257.232,41.625 259.932,41.625 C261.432,41.625 263.082,40.95 264.582,39.975 L264.582,39.975 L267.432,47.325 C265.032,49.2 261.957,50.175 258.357,50.175 C251.457,50.175 246.882,46.125 246.882,37.725 L246.882,37.725 L246.882,21.6 L240.507,21.6 L240.507,14.475 L243.357,14.175 C245.982,13.95 247.257,12.3 247.482,9 L247.482,9 L247.932,2.4 L256.107,2.4 Z M99.66,14.175 L99.66,49.275 L90.36,49.275 L90.36,14.175 L99.66,14.175 Z M127.26,13.275 C132.66,13.275 138.435,16.95 138.435,26.325 L138.435,26.325 L138.435,49.275 L129.21,49.275 L129.21,29.025 C129.21,23.85 126.885,22.2 123.885,22.2 C121.635,22.2 119.085,23.175 117.06,24.75 L117.06,24.75 L117.06,49.275 L107.76,49.275 L107.76,14.175 L116.16,14.175 L116.385,19.125 L116.835,19.425 C119.085,16.275 122.16,13.275 127.26,13.275 Z M160.334,-1.42108547e-14 C164.159,-1.42108547e-14 167.009,1.275 168.584,2.4 L168.584,2.4 L165.209,9.6 C164.159,8.4 162.734,7.65 160.934,7.65 C158.534,7.65 157.034,9.075 157.034,11.625 L157.034,11.625 L157.034,14.175 L164.909,14.175 L164.909,21.6 L157.034,21.6 L157.034,49.275 L147.809,49.275 L147.809,21.6 L143.084,21.6 L143.084,14.175 L147.809,14.175 L147.809,12.75 C147.809,5.85 151.934,-1.42108547e-14 160.334,-1.42108547e-14 Z M179.534,14.175 L179.534,49.275 L170.234,49.275 L170.234,14.175 L179.534,14.175 Z M207.134,13.275 C212.534,13.275 218.309,16.95 218.309,26.325 L218.309,26.325 L218.309,49.275 L209.084,49.275 L209.084,29.025 C209.084,23.85 206.759,22.2 203.759,22.2 C201.509,22.2 198.959,23.175 196.934,24.75 L196.934,24.75 L196.934,49.275 L187.634,49.275 L187.634,14.175 L196.034,14.175 L196.259,19.125 L196.709,19.425 C198.959,16.275 202.034,13.275 207.134,13.275 Z M235.408,14.175 L235.408,49.275 L226.108,49.275 L226.108,14.175 L235.408,14.175 Z" id="Infinity" fill="#000000"></path>
        <g id="Logo" transform="translate(0.000000, 13.275000)">
            <path d="M18.45,36.9 C8.276,36.9 0,28.624 0,18.45 L9.3,18.45 C9.3,23.496 13.404,27.6 18.45,27.6 C23.552,27.6 30.91,20.911 37.402,15.01 C45.519,7.63 53.912,0 62.61,0 C72.783,0 81.06,8.277 81.06,18.45 L71.76,18.45 C71.76,13.405 67.655,9.3 62.61,9.3 C57.507,9.3 50.149,15.989 43.658,21.891 C35.541,29.27 27.147,36.9 18.45,36.9" id="Fill-2" fill="#FF2E00"></path>
            <path d="M62.61,36.9 C53.912,36.9 45.519,29.27 37.402,21.891 C30.91,15.989 23.552,9.3 18.45,9.3 C13.404,9.3 9.3,13.405 9.3,18.45 L0,18.45 C0,8.277 8.276,0 18.45,0 C27.147,0 35.541,7.631 43.658,15.01 C50.149,20.911 57.507,27.6 62.61,27.6 C67.655,27.6 71.76,23.496 71.76,18.45 L81.06,18.45 C81.06,28.624 72.783,36.9 62.61,36.9" id="Logo-Groen" fill="#00E886"></path>
        </g>
    </g>
</svg>