<?xml version="1.0" encoding="UTF-8"?>
<svg width="818px" height="120px" viewBox="0 0 818 120" version="1.1" xmlns="http://www.w3.org/2000/svg" xmlns:xlink="http://www.w3.org/1999/xlink">
    <!-- Generator: sketchtool 62 (101010) - https://sketch.com -->
    <title>Logo Healthy Workers</title>
    <defs>
        <polygon id="path-1" points="0.06 0.00017374301 66.023 0.00017374301 66.023 93.565 0.06 93.565"></polygon>
        <polygon id="path-3" points="0.576878759 0.00017374301 260.54 0.00017374301 260.54 119.94 0.576878759 119.94"></polygon>
    </defs>
    <g id="Logos" stroke="none" stroke-width="1" fill="none" fill-rule="evenodd">
        <g id="Logo-/-2-Wordmark-/-Dark">
            <g id="logo-healthy_workers_wordmark_blue">
                <g id="Group-3">
                    <mask id="mask-2" fill="white">
                        <use xlink:href="#path-1"></use>
                    </mask>
                    <g id="Clip-2"></g>
                    <path d="M66.023,91.331 L66.023,91.828 C66.023,92.945 65.031,93.565 63.418,93.565 L45.174,93.565 C43.561,93.565 42.568,92.945 42.568,91.828 L42.568,91.331 C42.568,88.477 47.284,87.981 47.036,83.14 L45.794,58.567 C45.174,45.04 40.334,38.71 32.764,38.71 C24.821,38.71 19.733,45.164 19.733,54.099 L19.733,83.264 C19.733,88.105 24.821,88.477 24.821,91.331 L24.821,91.704 C24.821,92.821 23.704,93.565 22.09,93.565 L2.855,93.565 C1.241,93.565 0.248,92.821 0.248,91.704 L0.248,91.331 C0.248,88.477 5.212,88.105 5.212,83.264 L5.212,17.365 C5.212,12.153 0,11.779 0,9.298 L0,8.926 C0,7.808 0.745,6.939 2.109,6.319 L15.389,0.487 C17.871,-0.631 19.361,0.237 19.361,2.472 L19.237,41.069 C22.96,35.855 29.165,32.754 36.611,32.754 C48.277,32.754 58.95,40.201 60.067,58.939 L61.556,83.016 C61.928,87.981 66.023,88.477 66.023,91.331" id="Fill-1" fill="#1E1D51" mask="url(#mask-2)"></path>
                </g>
                <path d="M79.912,57.699 C79.912,60.554 80.16,63.159 80.657,65.641 L101.258,56.706 C103.492,55.712 104.485,53.975 104.485,51.493 C104.485,46.405 99.893,37.47 92.695,37.47 C84.876,37.47 79.912,45.785 79.912,57.699 Z M120.122,76.563 C119.004,83.885 110.689,94.806 94.928,94.806 C78.298,94.806 65.516,82.519 65.516,63.283 C65.516,45.536 78.794,32.754 95.176,32.754 C111.185,32.754 118.384,42.309 118.384,50.997 C118.384,55.712 115.903,58.319 112.055,59.684 L82.021,70.729 C85.124,79.168 91.453,84.382 100.265,84.382 C108.084,84.382 113.668,80.286 116.151,75.321 C117.515,73.584 120.37,74.08 120.122,76.563 L120.122,76.563 Z" id="Fill-4" fill="#1E1D51"></path>
                <g id="Group-11" transform="translate(124.000000, 0.000000)">
                    <mask id="mask-4" fill="white">
                        <use xlink:href="#path-3"></use>
                    </mask>
                    <g id="Clip-6"></g>
                    <path d="M39.051,77.556 L38.679,73.708 C38.181,66.634 33.466,62.166 26.889,62.166 C20.063,62.166 15.223,66.882 15.223,74.329 C15.223,82.768 20.187,90.09 27.881,90.09 C34.831,90.09 39.423,84.258 39.051,77.556 Z M61.017,91.207 C61.017,93.565 56.301,94.309 50.965,94.309 C44.635,94.309 41.532,92.945 41.036,86.863 C38.181,91.455 32.597,94.806 23.786,94.806 C10.258,94.806 0.578,88.229 0.578,76.067 C0.454,63.905 10.631,57.451 23.165,57.451 C29.246,57.451 34.211,59.063 37.561,61.67 L37.313,59.188 C35.948,44.792 32.969,37.346 24.282,37.346 C12.74,37.346 15.223,52.363 7.404,52.363 C3.681,52.363 1.323,50.128 1.323,46.653 C1.323,38.834 11.003,32.754 24.282,32.754 C39.919,32.754 49.971,42.558 51.71,58.567 L54.192,82.395 C55.06,90.462 61.017,87.981 61.017,91.207 L61.017,91.207 Z" id="Fill-5" fill="#1E1D51" mask="url(#mask-4)"></path>
                    <path d="M63.86,91.704 L63.86,91.331 C63.86,88.477 68.452,88.105 68.452,83.264 L68.452,17.861 C68.452,12.649 63.86,11.655 63.86,9.422 L63.86,9.05 C63.86,7.932 64.729,7.436 65.971,6.815 L78.505,0.611 C81.359,-0.755 82.973,0.735 82.973,2.596 L82.973,83.264 C82.973,88.105 88.061,88.477 88.061,91.331 L88.061,91.704 C88.061,92.821 86.944,93.565 85.33,93.565 L66.467,93.565 C64.853,93.565 63.86,92.821 63.86,91.704" id="Fill-7" fill="#1E1D51" mask="url(#mask-4)"></path>
                    <path d="M98.232,74.701 L98.232,40.076 L91.158,40.076 C89.916,40.076 89.047,39.207 89.047,37.966 L89.047,36.229 C89.047,34.863 89.792,33.994 91.158,33.994 L95.005,33.994 C101.458,33.994 105.305,29.155 106.299,21.956 C106.547,20.219 107.539,19.226 108.78,19.226 L110.643,19.226 C112.255,19.226 113,20.219 113,21.956 L113.124,33.994 L128.761,33.994 C130.003,33.994 130.996,34.987 130.996,36.229 L130.996,37.966 C130.996,39.207 130.003,40.076 128.761,40.076 L113.124,40.076 L113.124,74.825 C113.124,80.783 116.102,84.01 120.198,84.01 C125.41,84.01 128.265,81.155 129.009,77.556 C130.127,75.569 133.105,75.943 133.105,78.176 C133.105,86.491 126.776,94.806 115.606,94.806 C105.181,94.806 98.232,88.105 98.232,74.701" id="Fill-8" fill="#1E1D51" mask="url(#mask-4)"></path>
                    <path d="M200.611,91.331 L200.611,91.828 C200.611,92.945 199.617,93.565 198.004,93.565 L179.76,93.565 C178.147,93.565 177.155,92.945 177.155,91.828 L177.155,91.331 C177.155,88.477 181.871,87.981 181.622,83.14 L180.38,58.567 C179.76,45.04 174.92,38.71 167.35,38.71 C159.407,38.71 154.319,45.164 154.319,54.099 L154.319,83.264 C154.319,88.105 159.407,88.477 159.407,91.331 L159.407,91.704 C159.407,92.821 158.29,93.565 156.676,93.565 L137.441,93.565 C135.827,93.565 134.834,92.821 134.834,91.704 L134.834,91.331 C134.834,88.477 139.798,88.105 139.798,83.264 L139.798,17.365 C139.798,12.153 134.586,11.779 134.586,9.298 L134.586,8.926 C134.586,7.808 135.331,6.939 136.695,6.319 L149.976,0.487 C152.456,-0.631 153.947,0.237 153.947,2.472 L153.823,41.069 C157.546,35.855 163.75,32.754 171.197,32.754 C182.863,32.754 193.537,40.201 194.653,58.939 L196.142,83.016 C196.514,87.981 200.611,88.477 200.611,91.331" id="Fill-9" fill="#1E1D51" mask="url(#mask-4)"></path>
                    <path d="M260.54,35.732 L260.54,36.229 C260.54,39.083 256.941,39.579 254.583,44.916 L231.127,96.296 C226.783,106.099 220.579,120 208.168,120 C197.867,120 191.413,113.422 191.413,107.838 C191.413,104.239 193.647,101.632 197.495,101.632 C205.81,101.632 203.327,114.911 210.401,114.911 C215.241,114.911 220.455,105.975 224.302,96.42 L200.102,44.916 C197.495,39.455 193.771,39.083 193.771,36.229 L193.771,35.732 C193.771,34.615 194.764,33.994 196.006,33.994 L215.613,33.994 C216.855,33.994 217.724,34.739 217.724,35.855 L217.724,36.229 C217.724,39.083 213.132,39.207 215.737,45.04 L232.121,82.643 L247.508,46.405 C250.487,39.331 242.42,39.083 242.42,36.229 L242.42,35.855 C242.42,34.739 243.289,33.994 244.655,33.994 L258.43,33.994 C259.672,33.994 260.54,34.615 260.54,35.732" id="Fill-10" fill="#1E1D51" mask="url(#mask-4)"></path>
                </g>
                <path d="M493.118,35.732 L493.118,36.229 C493.118,38.958 488.774,39.207 486.913,44.42 L470.158,90.834 C469.538,92.697 468.669,93.565 466.684,93.565 L463.457,93.565 C461.471,93.565 460.23,92.697 459.734,90.834 L446.952,50.624 L434.167,90.834 C433.547,92.697 432.431,93.565 430.57,93.565 L428.335,93.565 C426.349,93.565 425.356,92.697 424.612,90.834 L405.996,44.42 C404.135,39.455 400.66,38.834 400.66,36.229 L400.66,35.732 C400.66,34.615 401.528,33.994 402.894,33.994 L422.005,33.994 C423.372,33.994 424.116,34.739 424.116,35.855 L424.116,36.229 C424.116,38.834 418.53,38.958 420.517,44.544 L432.183,78.424 L445.089,36.601 C445.585,35.111 446.206,34.367 447.572,34.367 L453.528,34.243 C455.018,34.243 455.639,34.987 456.011,36.353 L468.669,78.548 L480.087,45.785 C482.322,39.207 475.372,38.958 475.372,36.229 L475.372,35.855 C475.372,34.739 476.364,33.994 477.604,33.994 L491.009,33.994 C492.373,33.994 493.118,34.615 493.118,35.732" id="Fill-12" fill="#1E1D51"></path>
                <path d="M537.293,69.241 C537.293,51.867 528.978,37.47 517.56,37.47 C508.749,37.47 503.04,44.668 503.04,58.319 C503.04,73.708 511.355,90.09 523.89,90.09 C531.584,90.09 537.293,82.643 537.293,69.241 Z M488.396,63.159 C488.396,45.536 502.171,32.754 519.174,32.754 C538.783,32.754 551.937,47.025 551.937,64.153 C551.937,81.155 540.023,94.806 522.028,94.806 C500.93,94.806 488.396,79.665 488.396,63.159 L488.396,63.159 Z" id="Fill-13" fill="#1E1D51"></path>
                <g id="Group-17" transform="translate(553.000000, 0.000000)" fill="#1E1D51">
                    <path d="M45.961,43.178 C45.961,47.397 44.223,50.997 39.507,50.997 C31.44,50.997 35.163,41.317 27.965,41.317 C22.133,41.317 19.402,48.639 19.402,56.706 L19.402,83.264 C19.402,88.105 25.11,88.601 25.11,91.331 L25.11,91.828 C25.11,92.945 24.118,93.565 22.505,93.565 L3.268,93.565 C1.654,93.565 0.662,92.945 0.662,91.828 L0.662,91.331 C0.662,88.601 5.377,88.105 5.377,83.264 L5.377,49.88 C5.377,44.792 0.041,44.544 0.041,41.813 L0.041,41.441 C0.041,40.449 0.91,39.579 2.276,38.834 L14.438,33.25 C17.043,32.008 18.037,33.25 18.037,35.359 L18.037,45.04 C20.767,37.097 26.6,32.754 34.543,32.754 C41.865,32.754 45.961,37.47 45.961,43.178" id="Fill-14"></path>
                    <path d="M111.727,91.455 L111.727,91.828 C111.727,92.945 110.859,93.565 109.494,93.565 L89.513,93.565 C88.272,93.565 87.403,92.821 87.403,91.704 L87.403,91.455 C87.403,88.725 91.994,88.229 89.761,85.374 L73.876,64.153 L65.437,71.972 L65.437,83.264 C65.437,88.105 70.525,88.477 70.525,91.331 L70.525,91.704 C70.525,92.821 69.408,93.565 67.794,93.565 L48.931,93.565 C47.317,93.565 46.324,92.821 46.324,91.704 L46.324,91.331 C46.324,88.477 50.916,88.105 50.916,83.264 L50.916,17.861 C50.916,12.649 45.704,11.655 45.704,9.422 L45.704,9.05 C45.704,7.932 46.448,7.436 47.813,6.815 L60.969,0.611 C63.699,-0.631 65.437,0.735 65.437,2.596 L65.437,63.779 L87.775,44.296 C91.25,41.317 84.921,38.834 84.921,36.229 L84.921,35.855 C84.921,34.615 85.79,33.994 87.155,33.994 L103.04,33.994 C104.282,33.994 105.15,34.615 105.15,35.732 L105.15,36.105 C105.15,38.834 99.689,40.325 95.47,44.172 L83.307,55.34 L105.398,85.374 C107.508,88.229 111.727,88.849 111.727,91.455" id="Fill-16"></path>
                </g>
                <path d="M674.52,57.699 C674.52,60.554 674.769,63.159 675.265,65.641 L695.866,56.706 C698.101,55.712 699.093,53.975 699.093,51.493 C699.093,46.405 694.501,37.47 687.303,37.47 C679.484,37.47 674.52,45.785 674.52,57.699 Z M714.73,76.563 C713.613,83.885 705.298,94.806 689.536,94.806 C672.906,94.806 660.124,82.519 660.124,63.283 C660.124,45.536 673.403,32.754 689.785,32.754 C705.794,32.754 712.992,42.309 712.992,50.997 C712.992,55.712 710.511,58.319 706.664,59.684 L676.63,70.729 C679.733,79.168 686.061,84.382 694.874,84.382 C702.692,84.382 708.277,80.286 710.759,75.321 C712.124,73.584 714.979,74.08 714.73,76.563 L714.73,76.563 Z" id="Fill-18" fill="#1E1D51"></path>
                <path d="M763.866,43.178 C763.866,47.397 762.127,50.997 757.412,50.997 C749.345,50.997 753.068,41.317 745.87,41.317 C740.038,41.317 737.307,48.639 737.307,56.706 L737.307,83.264 C737.307,88.105 743.015,88.601 743.015,91.331 L743.015,91.828 C743.015,92.945 742.022,93.565 740.41,93.565 L721.173,93.565 C719.559,93.565 718.566,92.945 718.566,91.828 L718.566,91.331 C718.566,88.601 723.282,88.105 723.282,83.264 L723.282,49.88 C723.282,44.792 717.946,44.544 717.946,41.813 L717.946,41.441 C717.946,40.449 718.814,39.579 720.181,38.834 L732.343,33.25 C734.948,32.008 735.942,33.25 735.942,35.359 L735.942,45.04 C738.671,37.097 744.505,32.754 752.448,32.754 C759.77,32.754 763.866,37.47 763.866,43.178" id="Fill-19" fill="#1E1D51"></path>
                <path d="M765.222,80.41 C765.222,76.563 767.829,74.701 771.426,74.701 C780.735,74.701 776.64,90.462 791.159,90.462 C797.737,90.462 802.577,87.235 802.577,80.907 C802.577,64.153 766.462,75.197 766.462,50.376 C766.462,40.325 776.516,32.754 790.787,32.754 C806.3,32.754 815.609,40.325 815.609,47.521 C815.609,50.624 813.126,52.859 809.899,52.859 C801.212,52.859 804.563,37.222 791.533,37.222 C785.451,37.222 781.107,41.441 781.107,46.777 C781.107,63.655 817.222,52.859 817.222,77.431 C817.222,87.111 807.168,94.682 791.159,94.682 C774.901,94.682 765.222,87.235 765.222,80.41" id="Fill-20" fill="#1E1D51"></path>
            </g>
        </g>
    </g>
</svg>