<svg xmlns="http://www.w3.org/2000/svg" width="1700" height="200"><path d="M1354.8 111.4V2.8h32.9v119.9c0 7.5 0 15.3 2.1 22.8 1.8 6.2 5.4 12.6 11.1 16.2 7.2 5.1 16.4 6.2 24.8 6 9 0 18.8-1.8 25.7-8.1 6.2-5.7 9-14.1 9.8-22.1.6-7.5.6-14.9.6-22.4V2.8h32.6v113c0 12 .6 24.2-1.8 35.9-2.4 12.6-8.4 25.1-18.3 33.5-11.7 10.2-27.5 13.4-42.5 14.7h-14.3c-12-.9-24.2-3-34.7-9.2-12-6.6-20.3-18.5-23.9-31.4-5.3-15.3-4.1-31.8-4.1-47.9h0 0zm-142-108.6h113.4v31.1H1246v46.3h77.2v31.1H1246v53.9h80.1v31.1h-113.4V2.8zm-319.7 0H926v125.3c0 9.8 1.2 20.3 7.5 28.4 5.4 7.2 14.3 10.2 23 11.1 16.6 1.5 35-2.2 40.3-20 3.3-9.2 2.7-19.4 2.7-29V2.8h32.9v122.6c0 9.6-.3 19.4-2.4 28.7-6.1 30.4-31 44.9-60.4 46.1H955c-28.5-1.3-52.5-14.2-59.5-43.3-3.9-14.1-3-28.7-3-43.3l.6-110.8h0zm-201.9 0h37.4l46.1 84.7 46.1-84.7H858v193.8h-32.6V72.2c0-7.7.9-15.8 1.8-23.6-3.9 10.2-39.8 75.1-39.8 75.1h-25.7l-40.1-75.3c1.5 9.6 2.1 19.2 2.1 28.7v119.3h-32.3l-.2-193.6h0 0zM338 2.8h32.9v79.6l60.7-77.8c.6-.9 1.2-2.1 2.7-1.8h40.1c-.3.9-.6 1.8-1.2 2.4l-72.9 90.6 75.7 98.1c.6.9.9 1.5 1.2 2.7h-41.3L371 110.2v86.4h-32.9L338 2.8h0zm-77.2 0h32.9c-.7 19.6 1.5 128.8-1.2 146-2.1 14.1-8.7 27.5-19.8 36.5-11.3 9.9-26.8 13.8-41.8 14.7h-13.8c-17-.9-34.1-5.4-49-13.8v-33.8s2.7.9 4.2 1.5c21.3 11.3 60.7 22.4 80.4 3.6 6-6.2 8.4-15.3 8.4-23.6l-.3-131.1zm-92.7 0H201v120.5h-32.6c.1 0-.3-120.5-.3-120.5zM33.6 33.6v60.7h24.5c9.6-.6 20-1.8 27.8-8.1 6.6-5.1 9-13.8 9-21.8.8-35.5-36.7-30.5-61.3-30.8zM.7 2.8c38.1 2.8 101-12.3 122 30.2 11.3 26.7 8.7 65.6-19.2 81l34.4 82.9h-35.6l-28.7-73.3c-13.2 2.1-26.6.9-39.8 1.2v72.1H.7V2.8zM1123.4-.5c17.9-.5 37.1 1.8 52.6 11.3v33.8c-21.7-12-53.3-21.1-75.1-5.1-9 8.1-9 24.5.9 32 8.7 6.9 19.8 9.6 29.9 13.4 14.1 4.8 28.4 10.2 38.3 21.5 18.5 22 14.2 59-7.5 77.2-28.6 22.7-72.1 20.9-102.9 3.3v-33.8c23.2 12.8 55.6 23.5 79.5 7.2 9-7.2 11.1-22.1 3.6-31.1-16.8-16-43.3-15.6-61.9-29.3-21-13.3-25.1-42.2-17-64.3 8.8-23.8 35.8-34.9 59.6-36.1h0zM553-.5h12.8c13.8 1.2 27.8 4.2 39.8 11.3v33.5c-16.9-9.6-36.5-15.6-56.2-12.8-7.2.9-14.3 3.3-19.4 8.4-5.7 5.7-7.2 14.7-4.8 22.1 2.1 6.6 8.1 11.1 14.1 13.8 17 8.1 36.2 11.1 51.8 22.1 23.6 15.4 25.9 51.1 11.7 73.6-11.9 18.8-34 26.4-55 28.1H535c-15.8-1.2-31.7-4.8-45.4-13.2v-33.8c4.5 2.1 8.7 4.8 13.2 6.6 19 8.4 50.8 14.7 67.6-.6 6.9-6.2 8.7-17 5.1-25.4-2.7-6.2-9-10.2-14.9-12.8-20.8-9.4-46.1-12.4-60.9-31.4-15.7-20.5-12.7-54.6 6.2-72.1C518.7 5.8 536.3.7 553-.5zm976.1 3.6h37.4l46.1 84.7 46.1-84.7h37.4v193.8h-32.6V72.5c0-7.7.9-15.8 1.8-23.6-3.9 10.2-39.8 75.1-39.8 75.1h-25.7l-40.1-75.3c1.5 9.6 2.1 19.2 2.1 28.7v119.3h-32.3l-.4-193.6h0 0z" fill="#181916"/></svg>