<svg xmlns="http://www.w3.org/2000/svg" viewBox="-1017 7094.502 228.022 72.215">
  <defs>
    <style>
      .cls-1 {
        fill: #e94f3d;
      }

      .cls-2 {
        fill: #2f4460;
      }
    </style>
  </defs>
  <g id="logo" transform="translate(-1017 7094.502)">
    <g id="Group_64" data-name="Group 64" transform="translate(83.464 55.276)">
      <path id="Path_1" data-name="Path 1" class="cls-1" d="M129.1,85.6h2.069v3.944a2.639,2.639,0,0,1,1.94-.711c1.746,0,3.233,1.293,3.233,3.62v3.233a3.285,3.285,0,0,1-3.3,3.62,2.369,2.369,0,0,1-2.133-1.1v.905H129.1V85.6Zm5.172,10.085V92.518a1.53,1.53,0,0,0-1.552-1.681,1.5,1.5,0,0,0-1.552,1.681v3.168a1.5,1.5,0,0,0,1.552,1.681A1.564,1.564,0,0,0,134.272,95.685Z" transform="translate(-129.1 -85.535)"/>
      <path id="Path_2" data-name="Path 2" class="cls-1" d="M145.2,97.594c0,1.034.453,1.681,1.487,1.681.97,0,1.487-.646,1.487-1.681h0V91h2.069v10.021h-1.875v-.84a2.369,2.369,0,0,1-2.133,1.1,2.916,2.916,0,0,1-3.039-3.168V91h2.069v6.594Z" transform="translate(-134.084 -87.444)"/>
      <path id="Path_3" data-name="Path 3" class="cls-1" d="M159.6,87.7h-2.2V85.5h2.2Zm-.129,11.314H157.4V89.056h2.069Z" transform="translate(-139.104 -85.5)"/>
      <path id="Path_4" data-name="Path 4" class="cls-1" d="M165.969,85.6V99.047H163.9V85.6Z" transform="translate(-141.402 -85.535)"/>
      <path id="Path_5" data-name="Path 5" class="cls-1" d="M175.207,89.544V85.6h2.069V99.047h-1.81v-.84a2.334,2.334,0,0,1-2.069,1.1,3.285,3.285,0,0,1-3.3-3.62V92.453c0-2.327,1.487-3.62,3.233-3.62A2.587,2.587,0,0,1,175.207,89.544Zm0,2.909a1.53,1.53,0,0,0-1.552-1.681,1.5,1.5,0,0,0-1.552,1.681v3.168a1.5,1.5,0,0,0,1.552,1.681,1.53,1.53,0,0,0,1.552-1.681Z" transform="translate(-143.593 -85.535)"/>
      <path id="Path_6" data-name="Path 6" class="cls-1" d="M186.6,87.7h-2.2V85.5h2.2Zm-.065,11.314h-2.069V89.056h2.069Z" transform="translate(-148.648 -85.5)"/>
      <path id="Path_7" data-name="Path 7" class="cls-1" d="M196.043,94.22c0-1.034-.453-1.681-1.487-1.681-.97,0-1.487.647-1.487,1.681h0v6.594H191V90.859h1.875v.905a2.452,2.452,0,0,1,2.2-1.164,2.916,2.916,0,0,1,3.039,3.168v7.047h-2.069Z" transform="translate(-150.981 -87.303)"/>
      <path id="Path_8" data-name="Path 8" class="cls-1" d="M210.166,91.666V90.89h1.875v9.762a3.41,3.41,0,0,1-3.556,3.62,3.337,3.337,0,0,1-3.556-3.3v-.065H207v.065a1.36,1.36,0,0,0,1.487,1.358c.97,0,1.487-.582,1.487-1.681v-.84a2.551,2.551,0,0,1-1.875.647,3.32,3.32,0,0,1-3.3-3.62V94.317a3.285,3.285,0,0,1,3.3-3.62A2.172,2.172,0,0,1,210.166,91.666Zm-.194,2.586a1.53,1.53,0,0,0-1.552-1.681c-1.034,0-1.552.711-1.552,1.746v2.457a1.5,1.5,0,0,0,1.552,1.681,1.53,1.53,0,0,0,1.552-1.681Z" transform="translate(-155.86 -87.334)"/>
      <path id="Path_9" data-name="Path 9" class="cls-1" d="M227.762,91.255v5.237a.867.867,0,0,0,.905.97h.905v2h-1.293a2.412,2.412,0,0,1-2.586-2.457V91.319H224.4V89.445h1.293V86.6h2.069v2.845h1.875v1.875h-1.875Z" transform="translate(-162.788 -85.889)"/>
      <path id="Path_10" data-name="Path 10" class="cls-1" d="M237.2,89.608a2.439,2.439,0,0,1,1.94-.776,2.967,2.967,0,0,1,3.1,3.168v7.112h-2V92.453c0-1.034-.453-1.681-1.487-1.681-.905,0-1.422.582-1.487,1.552v6.724H235.2V85.6h2.069v4.008Z" transform="translate(-166.606 -85.535)"/>
      <path id="Path_11" data-name="Path 11" class="cls-1" d="M256.206,94.185v2.263h-5.237v.905a1.544,1.544,0,0,0,1.616,1.681,1.463,1.463,0,0,0,1.616-1.487v-.065h2.069v.065a3.366,3.366,0,0,1-3.685,3.426,3.444,3.444,0,0,1-3.685-3.62V94.12a3.427,3.427,0,0,1,3.62-3.62A3.528,3.528,0,0,1,256.206,94.185Zm-5.172.453H254.2v-.453a1.512,1.512,0,0,0-1.616-1.681,1.5,1.5,0,0,0-1.552,1.681Z" transform="translate(-171.449 -87.267)"/>
      <path id="Path_12" data-name="Path 12" class="cls-1" d="M273.513,93.968a1.307,1.307,0,0,0-1.422-1.358c-.97,0-1.293.517-1.293.97,0,.711.647.905,1.616,1.228l.84.323c1.358.517,2.457,1.293,2.457,2.974,0,1.81-1.358,3.1-3.556,3.1a3.278,3.278,0,0,1-3.556-3.168v-.388h2.069v.194a1.441,1.441,0,0,0,1.552,1.487c.84,0,1.422-.388,1.422-1.1,0-.646-.711-.97-1.552-1.228l-.905-.323c-1.422-.517-2.457-1.228-2.457-2.974,0-1.681,1.358-2.909,3.362-2.909a3.314,3.314,0,0,1,3.491,3.362h-2.069Z" transform="translate(-178.413 -87.374)"/>
      <path id="Path_13" data-name="Path 13" class="cls-1" d="M287.019,94.091c0-.97-.453-1.552-1.293-1.552s-1.358.646-1.358,1.616v6.659H282.3V90.859h1.875v.84a2.3,2.3,0,0,1,2.133-1.1,2.757,2.757,0,0,1,2.263,1.1,2.6,2.6,0,0,1,2.263-1.1,2.934,2.934,0,0,1,3.039,3.1v7.112H291.8V94.091c0-.97-.453-1.552-1.293-1.552a1.328,1.328,0,0,0-1.358,1.487v6.853h-2.069V94.091Z" transform="translate(-183.255 -87.303)"/>
      <path id="Path_14" data-name="Path 14" class="cls-1" d="M309.876,94.255v6.659h-1.81V100.2a3,3,0,0,1-2.2.905A2.935,2.935,0,0,1,302.7,98a3.109,3.109,0,0,1,3.362-3.168,2.765,2.765,0,0,1,1.81.582v-1.1c0-1.034-.517-1.681-1.422-1.681a1.358,1.358,0,0,0-1.422,1.422v.194h-2.069v-.194A3.226,3.226,0,0,1,306.45,90.7,3.26,3.26,0,0,1,309.876,94.255Zm-2,3.75a1.558,1.558,0,0,0-3.1,0,1.43,1.43,0,0,0,1.552,1.422A1.4,1.4,0,0,0,307.872,98Z" transform="translate(-190.467 -87.337)"/>
      <path id="Path_15" data-name="Path 15" class="cls-1" d="M321.073,92.8a1.906,1.906,0,0,0-2,2.133h0v5.948H317V90.859h1.875v1.164a2.749,2.749,0,0,1,2.457-1.422h.323v2.2Z" transform="translate(-195.522 -87.303)"/>
      <path id="Path_16" data-name="Path 16" class="cls-1" d="M328.662,91.255v5.237a.867.867,0,0,0,.905.97h.905v2h-1.293a2.412,2.412,0,0,1-2.586-2.457V91.319H325.3V89.445h1.293V86.6h2.069v2.845h1.875v1.875h-1.875Z" transform="translate(-198.456 -85.889)"/>
    </g>
    <path id="Path_17" data-name="Path 17" class="cls-2" d="M342.64,13.414h1.422c.388.065.517.259.582.647v.453c-.065.323-.259.582-.517.582H342.64Zm0,2.586h.84c.065,0,.194.065.194.129.323.517.646.97.905,1.487a.488.488,0,0,0,.453.259h.776l-1.228-1.94c.905-.517.97-1.164.905-2.133a1.321,1.321,0,0,0-1.228-1.228,6.759,6.759,0,0,0-1.616,0h-.84v5.3h.84Z" transform="translate(-120.825 -4.428)"/>
    <path id="Path_18" data-name="Path 18" class="cls-2" d="M341.737,9.24a4.332,4.332,0,1,1-4.332,4.332,4.332,4.332,0,0,1,4.332-4.332m0,9.633a5.237,5.237,0,1,0-5.237-5.237,5.215,5.215,0,0,0,5.237,5.237" transform="translate(-118.951 -2.969)"/>
    <path id="Path_19" data-name="Path 19" class="cls-2" d="M16.421,15.8A9.094,9.094,0,0,0,9.31,18.774L8.4,22.524V16.705H0V54.461H9.18V29.312c.194-2.974,1.875-4.849,4.719-4.849,3.233,0,4.719,2.2,4.719,5.3V54.4H27.8V27.372C27.8,21.1,23.921,15.8,16.421,15.8Z" transform="translate(0 -5.585)"/>
    <path id="Path_20" data-name="Path 20" class="cls-2" d="M243.123,15.8c-8.986,0-14.223,6.077-14.223,13.835v11.9c0,7.758,5.237,13.835,14.223,13.835s14.223-6.077,14.223-13.835v-11.9C257.411,21.877,252.109,15.8,243.123,15.8Zm5.043,25.6a5.046,5.046,0,1,1-10.085,0V29.765a5.046,5.046,0,1,1,10.085,0Z" transform="translate(-80.915 -5.585)"/>
    <path id="Path_21" data-name="Path 21" class="cls-2" d="M307.157,15.8a9.094,9.094,0,0,0-7.112,2.974l-.905,3.75V16.705H290.8V54.461h9.18V29.312c.194-2.974,1.875-4.849,4.719-4.849,3.233,0,4.72,2.2,4.72,5.3V54.4h9.18V27.372C318.535,21.1,314.656,15.8,307.157,15.8Z" transform="translate(-102.796 -5.585)"/>
    <path id="Path_22" data-name="Path 22" class="cls-2" d="M77.7,41.854v.065c0,2.715-1.94,4.719-5.172,4.719-3.3,0-5.043-2.263-5.043-5.237V40.044l-4.008-1.358h23.08V29.765c0-7.823-5.237-13.965-14.223-13.965C63.537,15.8,58.3,21.877,58.3,29.635v11.9c0,7.758,5.3,13.835,14.223,13.835,9.051,0,14.288-5.819,14.288-13.253v-.194H77.7ZM67.416,29.765c0-2.845,1.616-5.237,4.849-5.237,3.3,0,5.043,2.392,5.043,5.366v.84H67.416Z" transform="translate(-20.609 -5.585)"/>
    <path id="Path_23" data-name="Path 23" class="cls-2" d="M134.393,34.785,144.349,17.2H133.876l-4.138,8.146.711,4.784-3.1-6.142L123.855,17.2H113.317L123.4,35.5l-10.6,19.46h10.409l5.625-11.572,5.689,11.572H145Z" transform="translate(-39.874 -6.08)"/>
    <path id="Path_24" data-name="Path 24" class="cls-2" d="M199.59,11.12h-10.8V0h-9.18V11.12H174.7V19.4h4.913V39.308c0,5.56,4.332,9.568,10.215,9.568h9.5V40.019h-7.758c-1.616,0-2.78-.582-2.78-2.715V20.494l-3.233-1.1H199.59Z" transform="translate(-61.756)"/>
  </g>
</svg>
