<svg width="185" height="34" viewBox="0 0 185 34" fill="none" xmlns="http://www.w3.org/2000/svg">
<path d="M0.0800781 14.1628L2.74213 11.5008L8.06623 16.8249C9.53643 18.2951 9.53643 20.6788 8.06623 22.149L0.0800781 14.1628Z" fill="#8197DA"/>
<path d="M13.3906 0.852539L10.7286 3.51459L16.0527 8.83869C17.5229 10.3089 19.9066 10.3089 21.3768 8.83869L13.3906 0.852539Z" fill="#8197DA"/>
<path d="M18.7148 32.7971L21.3769 30.1351L16.0528 24.811C14.5826 23.3408 12.1989 23.3408 10.7287 24.811L18.7148 32.7971Z" fill="#8197DA"/>
<path d="M32.0254 19.4868L29.3633 22.1489L24.0392 16.8248C22.569 15.3546 22.569 12.9709 24.0392 11.5007L32.0254 19.4868Z" fill="#8197DA"/>
<path d="M0.0800781 30.135L8.06623 22.1489L10.7283 24.8109L2.74213 32.7971L0.0800781 30.135Z" fill="#8197DA"/>
<path d="M18.7148 11.501L10.7287 19.4871L13.3907 22.1492L21.3769 14.163L18.7148 11.501Z" fill="#DEF1C6"/>
<path d="M29.3633 0.852539L21.3771 8.83869L24.0392 11.5007L32.0253 3.51459L29.3633 0.852539Z" fill="#8197DA"/>
<path d="M174.037 30.6413C173.673 30.6418 173.267 30.576 172.819 30.444C172.389 30.312 171.941 30.1387 171.477 29.9239L172.344 27.9848C172.709 28.15 173.024 28.2738 173.289 28.3563C173.571 28.4388 173.794 28.4799 173.96 28.4797C174.374 28.4792 174.722 28.3628 175.003 28.1306C175.301 27.8983 175.541 27.575 175.722 27.1606L177.159 23.7548L181.569 12.9409L184.103 12.9378L178.232 26.9091C177.918 27.6714 177.587 28.3344 177.24 28.8981C176.893 29.4617 176.463 29.8929 175.95 30.1917C175.453 30.4905 174.816 30.6403 174.037 30.6413ZM176.515 25.3707L171.059 12.9539L173.568 12.9508L178.079 23.7288L178.801 25.3679L176.515 25.3707Z" fill="#DEF1C6"/>
<path d="M162.984 30.6798C162.156 30.6808 161.402 30.5989 160.723 30.4341C160.044 30.2858 159.472 30.1126 159.008 29.9144C158.544 29.7162 158.196 29.5427 157.964 29.3939L158.856 27.4796C159.071 27.6118 159.378 27.7605 159.776 27.9257C160.173 28.1074 160.637 28.2559 161.168 28.3712C161.698 28.5031 162.286 28.5686 162.932 28.5678C163.694 28.5669 164.373 28.4087 164.969 28.0932C165.565 27.7943 166.028 27.3217 166.359 26.6752C166.706 26.0288 166.879 25.2003 166.877 24.1899L166.863 12.959L169.224 12.9561L169.238 24.1373C169.239 25.5618 168.968 26.7548 168.422 27.7163C167.893 28.6942 167.157 29.4323 166.213 29.9304C165.286 30.4285 164.21 30.6783 162.984 30.6798ZM162.754 25.2137C161.628 25.2151 160.642 24.9595 159.796 24.4471C158.967 23.918 158.312 23.19 157.831 22.263C157.366 21.3193 157.132 20.2346 157.131 19.0088C157.129 17.7334 157.36 16.6232 157.822 15.6785C158.302 14.7337 158.955 13.9958 159.783 13.4647C160.627 12.9336 161.612 12.6673 162.738 12.6659C163.765 12.6647 164.66 12.9286 165.423 13.4577C166.202 13.9868 166.799 14.7315 167.215 15.6918C167.647 16.6354 167.863 17.745 167.865 19.0205C167.866 20.2463 167.652 21.3315 167.223 22.2762C166.81 23.2044 166.214 23.9257 165.436 24.4401C164.675 24.9546 163.781 25.2124 162.754 25.2137ZM163.348 23.2252C164.044 23.2243 164.648 23.0414 165.161 22.6763C165.674 22.2947 166.079 21.789 166.377 21.1591C166.674 20.5128 166.822 19.7754 166.821 18.9472C166.82 18.119 166.67 17.3903 166.371 16.7612C166.072 16.1321 165.658 15.644 165.127 15.2968C164.613 14.933 164.008 14.7515 163.313 14.7524C162.584 14.7533 161.938 14.9363 161.375 15.3014C160.829 15.6499 160.399 16.1391 160.085 16.769C159.771 17.3988 159.614 18.1279 159.616 18.9561C159.617 19.7843 159.775 20.5213 160.09 21.1669C160.422 21.7959 160.862 22.3006 161.409 22.6809C161.973 23.0447 162.619 23.2261 163.348 23.2252Z" fill="#DEF1C6"/>
<path d="M150.606 18.7187C150.605 17.377 150.86 16.2834 151.373 15.438C151.885 14.5925 152.547 13.9623 153.358 13.5472C154.169 13.132 155.022 12.9239 155.917 12.9228L155.919 15.1591C155.174 15.16 154.462 15.2768 153.783 15.5095C153.121 15.7257 152.574 16.0908 152.144 16.6048C151.731 17.1023 151.525 17.7817 151.526 18.6431L150.606 18.7187ZM149.174 25.4044L149.158 12.9808L151.519 12.9779L151.534 25.4015L149.174 25.4044Z" fill="#DEF1C6"/>
<path d="M141.053 25.7124C139.843 25.7139 138.775 25.4419 137.846 24.8964C136.918 24.3344 136.188 23.565 135.657 22.5883C135.126 21.6117 134.859 20.4856 134.858 19.2101C134.856 17.9346 135.12 16.8079 135.649 15.8299C136.177 14.852 136.905 14.0891 137.832 13.5413C138.776 12.977 139.852 12.694 141.061 12.6925C142.188 12.6912 143.182 12.9798 144.044 13.5585C144.923 14.1206 145.603 14.9315 146.085 15.991C146.583 17.034 146.833 18.2677 146.835 19.6923L144.474 19.6952C144.489 18.635 144.356 17.7407 144.073 17.0122C143.807 16.2837 143.409 15.7376 142.879 15.3738C142.365 14.9934 141.743 14.8037 141.014 14.8046C140.236 14.8056 139.565 14.9886 139.002 15.3537C138.44 15.7023 138.001 16.208 137.687 16.871C137.39 17.5174 137.242 18.3127 137.243 19.2569C137.244 20.1348 137.419 20.8966 137.768 21.5422C138.116 22.1712 138.589 22.6675 139.186 23.0312C139.782 23.3784 140.462 23.5515 141.224 23.5505C142.036 23.5495 142.706 23.3582 143.236 22.9766C143.782 22.5949 144.212 22.1057 144.526 21.509L146.639 22.4754C146.309 23.1218 145.879 23.6939 145.349 24.1915C144.82 24.6725 144.191 25.046 143.462 25.3119C142.75 25.5778 141.947 25.7113 141.053 25.7124ZM136.399 19.7052L136.421 17.7671L145.515 17.7559L145.518 19.6939L136.399 19.7052Z" fill="#DEF1C6"/>
<path d="M121.633 25.4382L121.618 13.0147L123.829 13.012L123.981 15.2977L123.993 25.4353L121.633 25.4382ZM130.23 25.4276L130.222 19.0668L132.582 18.3185L132.59 25.4247L130.23 25.4276ZM130.222 19.0668C130.221 17.9404 130.087 17.0875 129.821 16.508C129.572 15.912 129.216 15.4983 128.751 15.267C128.304 15.0357 127.782 14.9121 127.186 14.8962C126.175 14.8975 125.389 15.2546 124.826 15.9676C124.264 16.6805 123.984 17.6831 123.985 18.9751L122.967 18.9764C122.965 17.6677 123.154 16.5494 123.534 15.6213C123.914 14.6766 124.46 13.9554 125.171 13.4576C125.899 12.9597 126.769 12.7102 127.779 12.709C129.27 12.7071 130.438 13.1695 131.284 14.0961C132.147 15.0061 132.579 16.4135 132.582 18.3185L130.222 19.0668Z" fill="#DEF1C6"/>
<path d="M107.523 25.4557L107.502 8.06274L109.937 8.05974L109.958 25.4527L107.523 25.4557ZM109.561 25.4532L109.558 23.2169L118.031 23.2065L118.034 25.4427L109.561 25.4532ZM109.551 17.6512L109.549 15.4647L117.177 15.4553L117.179 17.6418L109.551 17.6512ZM109.542 10.2965L109.539 8.06023L117.963 8.04985L117.965 10.2861L109.542 10.2965Z" fill="#DEF1C6"/>
<path d="M92.0889 25.7728C90.8466 25.7743 89.753 25.5024 88.8081 24.9569C87.8632 24.3949 87.1169 23.6255 86.569 22.6489C86.0377 21.6722 85.7713 20.5461 85.7697 19.2707C85.7682 17.9952 86.0318 16.8685 86.5607 15.8905C87.0895 14.9125 87.8257 14.1496 88.7693 13.6018C89.7127 13.0375 90.7974 12.7545 92.0232 12.753C93.249 12.7515 94.3343 13.0318 95.2792 13.5938C96.224 14.1393 96.9621 14.9004 97.4934 15.877C98.0247 16.8537 98.2911 17.9798 98.2926 19.2552C98.2942 20.5307 98.0306 21.6574 97.5017 22.6354C96.9728 23.6134 96.2367 24.3845 95.2932 24.9489C94.3662 25.4967 93.2981 25.7713 92.0889 25.7728ZM92.0862 23.6111C92.8317 23.6102 93.494 23.4272 94.0733 23.062C94.6526 22.6803 95.0992 22.1663 95.4132 21.5199C95.7437 20.8734 95.9084 20.1195 95.9073 19.2582C95.9063 18.3968 95.7397 17.6433 95.4076 16.9977C95.0921 16.3521 94.6359 15.8474 94.0392 15.4837C93.4424 15.1035 92.7712 14.9138 92.0258 14.9147C91.2639 14.9157 90.5932 15.107 90.0139 15.4887C89.4346 15.8538 88.9797 16.3596 88.6492 17.006C88.3187 17.6525 88.154 18.4064 88.1551 19.2677C88.1561 20.1291 88.3227 20.8826 88.6548 21.5282C88.9869 22.1738 89.4513 22.6867 90.0481 23.067C90.6449 23.4307 91.3243 23.6121 92.0862 23.6111Z" fill="#DEF1C6"/>
<path d="M80.8437 25.4886L80.8223 8.0957L83.1827 8.09279L83.2042 25.4857L80.8437 25.4886Z" fill="#DEF1C6"/>
<path d="M75.2148 25.4955L75.1934 8.10254L77.5538 8.09963L77.5753 25.4926L75.2148 25.4955Z" fill="#DEF1C6"/>
<path d="M67.0936 25.8037C65.8844 25.8052 64.8156 25.5332 63.8873 24.9877C62.959 24.4257 62.2292 23.6563 61.6979 22.6796C61.1666 21.703 60.9002 20.5769 60.8986 19.3014C60.8971 18.0259 61.1607 16.8992 61.6896 15.9213C62.2185 14.9433 62.9464 14.1804 63.8733 13.6326C64.8168 13.0683 65.8932 12.7853 67.1024 12.7838C68.2288 12.7825 69.223 13.0711 70.0851 13.6498C70.9637 14.2119 71.6439 15.0228 72.1256 16.0823C72.6238 17.1253 72.8738 18.359 72.8755 19.7836L70.5151 19.7865C70.5303 18.7264 70.3967 17.832 70.1142 17.1035C69.8483 16.375 69.45 15.8289 68.9195 15.4651C68.4056 15.0847 67.7841 14.895 67.0553 14.8959C66.2768 14.8969 65.6061 15.0799 65.0434 15.445C64.4806 15.7936 64.0422 16.2993 63.7283 16.9623C63.431 17.6087 63.2829 18.404 63.284 19.3482C63.2851 20.2261 63.46 20.9879 63.8086 21.6335C64.1573 22.2625 64.63 22.7589 65.2267 23.1225C65.8235 23.4697 66.5029 23.6428 67.2648 23.6418C68.0765 23.6408 68.7472 23.4495 69.2768 23.0679C69.8229 22.6862 70.253 22.197 70.567 21.6003L72.6802 22.5667C72.3497 23.2132 71.9197 23.7852 71.3903 24.2828C70.8608 24.7638 70.2318 25.1373 69.5033 25.4032C68.7913 25.6691 67.9881 25.8026 67.0936 25.8037ZM62.4398 19.7965L62.4622 17.8584L71.5563 17.8472L71.5586 19.7852L62.4398 19.7965Z" fill="#DEF1C6"/>
<path d="M55.316 25.52L55.2945 8.12706L57.7295 8.12405L57.751 25.517L55.316 25.52ZM43.5136 25.5345L43.4922 8.1416L45.9272 8.1386L45.9486 25.5315L43.5136 25.5345ZM45.5414 17.7052L45.5387 15.469L56.0738 15.456L56.0766 17.6922L45.5414 17.7052Z" fill="#DEF1C6"/>
</svg>
